<svg height="512pt" viewBox="0 0 512 512" width="512pt" xmlns="http://www.w3.org/2000/svg">
  <path className="face-svg" d="m7.5 142.433594c4.140625 0 7.496094-3.359375 7.496094-7.5v-119.9375h119.9375c4.140625 0 7.5-3.355469 7.5-7.496094s-3.359375-7.5-7.5-7.5h-127.433594c-4.140625 0-7.5 3.359375-7.5 7.5v127.433594c0 4.140625 3.355469 7.5 7.5 7.5zm0 0"/>
  <path className="face-svg" d="m134.933594 497.003906h-119.9375v-119.9375c0-4.140625-3.355469-7.5-7.496094-7.5s-7.5 3.359375-7.5 7.5v127.433594c0 4.140625 3.355469 7.5 7.5 7.5h127.433594c4.140625 0 7.5-3.359375 7.5-7.5s-3.359375-7.496094-7.5-7.496094zm0 0"/>
  <path className="face-svg" d="m503.507812 369.566406c-4.140624 0-7.496093 3.359375-7.496093 7.5v119.9375h-119.9375c-4.140625 0-7.5 3.355469-7.5 7.496094s3.359375 7.5 7.5 7.5h127.433593c4.144532 0 7.5-3.359375 7.5-7.5v-127.433594c0-4.140625-3.355468-7.5-7.5-7.5zm0 0"/>
  <path className="face-svg" d="m503.507812 0h-127.433593c-4.140625 0-7.5 3.359375-7.5 7.5s3.359375 7.496094 7.5 7.496094h119.9375v119.9375c0 4.140625 3.355469 7.5 7.496093 7.5 4.144532 0 7.5-3.359375 7.5-7.5v-127.433594c0-4.140625-3.355468-7.5-7.5-7.5zm0 0"/>
  <path className="face-svg" d="m111.980469 309.351562c-.515625-3.082031-1.023438-6.359374-1.507813-9.738281-.585937-4.101562-4.394531-6.945312-8.484375-6.363281-4.101562.589844-6.949219 4.390625-6.359375 8.488281.5 3.5 1.027344 6.894531 1.5625 10.089844.613282 3.664063 3.789063 6.261719 7.386719 6.261719.410156 0 .828125-.035156 1.246094-.105469 4.085937-.683594 6.839843-4.550781 6.15625-8.632813zm0 0"/>
  <path className="face-svg" d="m121.113281 380.320312c1.414063 2.320313 3.882813 3.605469 6.414063 3.605469 1.328125 0 2.671875-.355469 3.890625-1.09375 3.539062-2.152343 4.664062-6.761719 2.511719-10.304687-1.765626-2.90625-3.328126-5.632813-4.773438-8.339844-1.953125-3.652344-6.492188-5.03125-10.148438-3.078125-3.652343 1.949219-5.03125 6.492187-3.078124 10.148437 1.574218 2.949219 3.273437 5.917969 5.183593 9.0625zm0 0"/>
  <path className="face-svg" d="m413.769531 312.117188c.535157-3.179688 1.0625-6.574219 1.566407-10.085938.59375-4.097656-2.25-7.902344-6.351563-8.492188-4.097656-.585937-7.898437 2.253907-8.488281 6.351563-.492188 3.398437-1 6.671875-1.519532 9.738281-.683593 4.085938 2.070313 7.953125 6.152344 8.636719.421875.074219.839844.105469 1.253906.105469 3.597657 0 6.769532-2.589844 7.386719-6.253906zm0 0"/>
  <path className="face-svg" d="m381.726562 364.421875c-1.453124 2.710937-3.019531 5.4375-4.789062 8.332031-2.152344 3.535156-1.035156 8.148438 2.5 10.304688 1.21875.746094 2.566406 1.097656 3.898438 1.097656 2.527343 0 4.996093-1.277344 6.40625-3.59375 1.914062-3.136719 3.613281-6.097656 5.199218-9.050781 1.957032-3.648438.585938-8.195313-3.0625-10.152344-3.644531-1.960937-8.195312-.589844-10.152344 3.0625zm0 0"/>
  <path className="face-svg" d="m105.539062 347.082031c1.046876 3.144531 3.976563 5.136719 7.117188 5.136719.785156 0 1.582031-.125 2.363281-.382812 3.929688-1.304688 6.058594-5.550782 4.753907-9.480469-.96875-2.921875-1.894532-6.011719-2.746094-9.191407-1.074219-4-5.1875-6.371093-9.1875-5.292968-4 1.074218-6.371094 5.1875-5.296875 9.1875.929687 3.453125 1.9375 6.828125 2.996093 10.023437zm0 0"/>
  <path className="face-svg" d="m398.261719 352.488281c3.136719 0 6.0625-1.988281 7.109375-5.128906 1.066406-3.183594 2.082031-6.558594 3.015625-10.015625 1.082031-4-1.28125-8.117188-5.28125-9.199219-3.992188-1.078125-8.113281 1.285157-9.195313 5.28125-.859375 3.183594-1.789062 6.269531-2.761718 9.183594-1.3125 3.929687.808593 8.175781 4.738281 9.488281.785156.265625 1.585937.390625 2.375.390625zm0 0"/>
  <path className="face-svg" d="m292.832031 463.566406c-2.667969.894532-5.417969 1.527344-8.402343 1.9375-4.101563.5625-6.96875 4.347656-6.40625 8.449219.519531 3.757813 3.734374 6.480469 7.421874 6.480469.339844 0 .683594-.023438 1.03125-.070313 3.914063-.539062 7.550782-1.382812 11.113282-2.574219 3.929687-1.3125 6.046875-5.5625 4.734375-9.488281-1.3125-3.929687-5.566407-6.046875-9.492188-4.734375zm0 0"/>
  <path className="face-svg" d="m352.660156 419.480469c-3.128906-2.710938-7.867187-2.375-10.578125.757812-2.09375 2.414063-4.296875 4.898438-6.546875 7.382813-2.78125 3.070312-2.550781 7.8125.519532 10.59375 1.4375 1.300781 3.238281 1.941406 5.035156 1.941406 2.042968 0 4.078125-.828125 5.554687-2.460938 2.328125-2.566406 4.605469-5.136718 6.773438-7.636718 2.710937-3.132813 2.371093-7.867188-.757813-10.578125zm0 0"/>
  <path className="face-svg" d="m318.488281 445.550781c-2.546875 2.546875-4.8125 4.691407-6.933593 6.550781-3.113282 2.730469-3.425782 7.46875-.691407 10.582032 1.480469 1.6875 3.554688 2.554687 5.640625 2.554687 1.753906 0 3.515625-.613281 4.941406-1.863281 2.367188-2.078125 4.875-4.441406 7.65625-7.226562 2.925782-2.933594 2.921876-7.679688-.011718-10.605469-2.925782-2.929688-7.675782-2.925781-10.601563.007812zm0 0"/>
  <path className="face-svg" d="m260.390625 466.046875h-10.039063c-4.144531 0-7.5 3.355469-7.5 7.496094 0 4.144531 3.355469 7.5 7.5 7.5h10.039063c4.140625 0 7.496094-3.355469 7.496094-7.5 0-4.140625-3.355469-7.496094-7.496094-7.496094zm0 0"/>
  <path className="face-svg" d="m369.546875 410.128906c1.308594-1.75 2.59375-3.507812 3.816406-5.230468.742188-1.039063 1.464844-2.0625 2.179688-3.074219 2.386719-3.382813 1.578125-8.0625-1.804688-10.449219-3.386719-2.386719-8.0625-1.578125-10.453125 1.804688-.699218.996093-1.414062 2.003906-2.140625 3.023437-1.160156 1.628906-2.371093 3.292969-3.609375 4.945313-2.480468 3.320312-1.800781 8.015624 1.515625 10.496093 1.347657 1.007813 2.921875 1.492188 4.484375 1.492188 2.285156.003906 4.539063-1.035157 6.011719-3.007813zm0 0"/>
  <path className="face-svg" d="m168.75 420.03125c-2.710938-3.128906-7.449219-3.472656-10.578125-.761719-3.132813 2.710938-3.472656 7.445313-.761719 10.578125 2.171875 2.511719 4.449219 5.082032 6.769532 7.640625 1.476562 1.636719 3.515624 2.46875 5.558593 2.46875 1.792969 0 3.597657-.640625 5.03125-1.941406 3.070313-2.777344 3.304688-7.519531.523438-10.589844-2.238281-2.476562-4.441407-4.964843-6.542969-7.394531zm0 0"/>
  <path className="face-svg" d="m149.867188 396.207031c-.78125-1.101562-1.550782-2.183593-2.304688-3.253906-2.390625-3.382813-7.070312-4.1875-10.453125-1.796875-3.382813 2.386719-4.1875 7.066406-1.796875 10.449219.761719 1.082031 1.535156 2.175781 2.328125 3.289062 1.175781 1.652344 2.402344 3.335938 3.652344 5.011719 1.472656 1.972656 3.730469 3.015625 6.015625 3.015625 1.5625 0 3.132812-.488281 4.480468-1.492187 3.316407-2.476563 4-7.175782 1.523438-10.496094-1.183594-1.582032-2.339844-3.171875-3.445312-4.726563zm0 0"/>
  <path className="face-svg" d="m226.34375 465.472656c-2.980469-.425781-5.722656-1.074218-8.386719-1.980468-3.921875-1.335938-8.183593.761718-9.519531 4.679687-1.332031 3.921875.761719 8.183594 4.683594 9.519531 3.558594 1.210938 7.195312 2.070313 11.109375 2.628906.359375.050782.714843.074219 1.066406.074219 3.671875 0 6.882813-2.703125 7.414063-6.441406.582031-4.101563-2.265626-7.898437-6.367188-8.480469zm0 0"/>
  <path className="face-svg" d="m199.265625 451.933594c-2.117187-1.863282-4.382813-4.011719-6.929687-6.570313-2.921876-2.933593-7.667969-2.945312-10.605469-.019531-2.933594 2.921875-2.941407 7.667969-.019531 10.605469 2.777343 2.789062 5.277343 5.15625 7.636718 7.234375 1.425782 1.257812 3.191406 1.875 4.953125 1.875 2.078125 0 4.148438-.859375 5.628907-2.542969 2.738281-3.105469 2.441406-7.84375-.664063-10.582031zm0 0"/>
  <path className="face-svg" d="m255.503906 30.949219c-56.609375 0-99.390625 16.957031-127.148437 50.40625-2.644531 3.1875-2.203125 7.914062.980469 10.558593 3.1875 2.644532 7.914062 2.203126 10.5625-.984374 24.769531-29.847657 63.667968-44.984376 115.605468-44.984376 94.824219 0 144.039063 48.996094 150.457032 149.789063.253906 3.972656 3.550781 7.023437 7.476562 7.023437.160156 0 .320312-.003906.480469-.015624 4.132812-.265626 7.273437-3.828126 7.007812-7.960938-6.921875-108.710938-62.578125-163.832031-165.421875-163.832031zm0 0"/>
  <path className="face-svg" d="m414.246094 217.84375c-4.1875-.070312-7.542969 3.253906-7.601563 7.394531-.160156 11.894531-.828125 24.664063-1.984375 38.046875h-298.3125c-5.589844-64.566406.363282-113.234375 18.15625-148.621094 1.859375-3.703124.367188-8.210937-3.332031-10.070312s-8.207031-.367188-10.070313 3.332031c-18.945312 37.6875-25.4375 88.578125-19.800781 155.359375h-44.039062c-4.144531 0-7.5 3.359375-7.5 7.5s3.355469 7.5 7.5 7.5h45.6875c1.050781 2.941406 3.855469 4.972656 7.046875 4.972656.257812 0 .519531-.011718.777344-.039062 2.964843-.304688 5.328124-2.308594 6.269531-4.933594h296.917969c.945312 2.625 3.308593 4.628906 6.273437 4.933594.261719.027344.519531.039062.777344.039062 3.191406 0 5.996093-2.03125 7.042969-4.972656h45.691406c4.144531 0 7.5-3.359375 7.5-7.5s-3.355469-7.5-7.5-7.5h-44.039063c1.117188-13.273437 1.773438-25.976562 1.933594-37.84375.058594-4.140625-3.253906-7.542968-7.394531-7.597656zm0 0"/>

</svg>
